<svg width="960" height="520" viewBox="0 0 960 520" fill="none" xmlns="http://www.w3.org/2000/svg" role="img" aria-labelledby="title desc">
  <title id="title">Alutta logo</title>
  <desc id="desc">A refined ribbon-style A mark above the Alutta wordmark.</desc>
  <defs>
    <linearGradient id="alutta-ribbon" x1="270" y1="66" x2="692" y2="287" gradientUnits="userSpaceOnUse">
      <stop stop-color="#1E3A5F"/>
      <stop offset="0.58" stop-color="#1565C0"/>
      <stop offset="1" stop-color="#0EA5E9"/>
    </linearGradient>
    <style>
      .wordmark {
        font-family: "Mier B", "MierB", Arial, sans-serif;
        font-size: 86px;
        font-weight: 600;
        letter-spacing: 0.18em;
      }
    </style>
  </defs>

  <g transform="translate(0 6)">
    <path
      d="M314 241C350 144 390 72 462 72C519 72 550 115 574 179L610 276C620 302 643 313 665 300C687 288 695 262 682 238L628 128"
      stroke="url(#alutta-ribbon)"
      stroke-width="27"
      stroke-linecap="round"
      stroke-linejoin="round"
    />
    <path
      d="M335 312C303 312 281 285 291 256C302 221 337 199 388 184C448 166 535 157 568 110C591 77 566 43 515 34C442 22 389 68 351 146L310 231"
      stroke="#1E3A5F"
      stroke-width="25"
      stroke-linecap="round"
      stroke-linejoin="round"
    />
    <path
      d="M335 312C303 312 281 285 291 256C302 221 337 199 388 184C448 166 535 157 568 110"
      stroke="#F8F7F4"
      stroke-width="10"
      stroke-linecap="round"
      stroke-linejoin="round"
      opacity="0.95"
    />
    <path
      d="M366 285C348 300 327 296 320 280C313 263 327 245 354 233C386 219 431 211 481 197C528 184 579 162 614 119"
      stroke="#0EA5E9"
      stroke-width="9"
      stroke-linecap="round"
      stroke-linejoin="round"
      opacity="0.9"
    />
  </g>

  <text x="480" y="430" text-anchor="middle" class="wordmark" fill="#1E3A5F">ALUTTA</text>
</svg>
