<svg xmlns="http://www.w3.org/2000/svg" xmlns:xlink="http://www.w3.org/1999/xlink" viewBox="0 0 648.62 159.22"><defs><style>.cls-1{fill:#029b47;}.cls-2{fill:url(#linear-gradient);}.cls-3{fill:#fff;}</style><linearGradient id="linear-gradient" x1="-3146.49" y1="63.69" x2="-3302.9" y2="150.26" gradientTransform="matrix(-1, 0, 0, 1, -3148.97, 0)" gradientUnits="userSpaceOnUse"><stop offset="0" stop-color="#00d45f"/><stop offset="1" stop-color="#39b54a"/></linearGradient></defs><title>Horizontal - White Text - Coloured</title><g id="Layer_2" data-name="Layer 2"><g id="Layer_1-2" data-name="Layer 1"><path class="cls-1" d="M145,159.22h0a26.09,26.09,0,0,1-22.59-13.05l-9.27-16a29.72,29.72,0,0,0-51.48,0l-9.27,16a26.09,26.09,0,0,1-22.59,13.05h0A29.73,29.73,0,0,1,4,114.63l57.6-99.77a29.73,29.73,0,0,1,51.48,0l57.6,99.77A29.73,29.73,0,0,1,145,159.22Z"/><path class="cls-2" d="M0,129.45a29.77,29.77,0,0,0,29.77,29.77,26.09,26.09,0,0,0,22.59-13.05l6.16-10.66h0a31,31,0,0,1,3.39-5.84A29.77,29.77,0,0,1,69,121.55c12.48-11.81,38.5-26.88,90.06-27.07l-19.8-34.3L90.83,67.66a57.35,57.35,0,0,1-46-13.06l-4.14-3.53L5.07,112.82l-1,1.81A29.42,29.42,0,0,0,0,129.45Z"/><path class="cls-3" d="M208.77,129.2l36.6-112.62h23.55l36.6,112.62h-17L254.84,26.44h4.22L225.74,129.2Zm19-25.41V88.46h58.81v15.33Z"/><path class="cls-3" d="M321.16,129.2v-115H337.5v115Z"/><path class="cls-3" d="M392.8,131.47a34.4,34.4,0,0,1-14.71-2.81,27.16,27.16,0,0,1-9.65-7.39,34.08,34.08,0,0,1-5.67-10,50.85,50.85,0,0,1-2.66-10.55,68.19,68.19,0,0,1-.71-9.08V44.74H376V86.27a65.92,65.92,0,0,0,.82,10.13,31.59,31.59,0,0,0,3.13,9.65,18.76,18.76,0,0,0,6.49,7.2Q390.6,116,397.33,116a23.55,23.55,0,0,0,8.29-1.45,17.28,17.28,0,0,0,6.85-4.65,22.63,22.63,0,0,0,4.61-8.45,42.1,42.1,0,0,0,1.68-12.75l10.17,3.83a45.64,45.64,0,0,1-4.3,20.3,32.47,32.47,0,0,1-12.36,13.73Q404.22,131.47,392.8,131.47Zm27.92-2.27V104.8h-2V44.74h16.51V129.2Z"/><path class="cls-3" d="M447.78,57.88V44.74H505.5V57.88ZM505.5,129.2a69.43,69.43,0,0,1-15.65,1.33,35.14,35.14,0,0,1-13.68-3,18.65,18.65,0,0,1-9.08-8.6,24.83,24.83,0,0,1-2.93-10.68Q464,102.85,464,96V21.28h16.42v73.9q0,5.08.12,8.84a13.46,13.46,0,0,0,1.6,6.34,11.07,11.07,0,0,0,9,5.51,59.35,59.35,0,0,0,14.43-.51Zm-1-71.32V44.74H562.2V57.88ZM562.2,129.2a69.35,69.35,0,0,1-15.64,1.33,35.19,35.19,0,0,1-13.69-3,18.59,18.59,0,0,1-9.07-8.6,24.71,24.71,0,0,1-2.94-10.68q-.2-5.43-.19-12.32V21.28h16.42v73.9q0,5.08.12,8.84a13.46,13.46,0,0,0,1.6,6.34,11.07,11.07,0,0,0,9,5.51,59.35,59.35,0,0,0,14.43-.51Z"/><path class="cls-3" d="M603.72,131.55q-9.37,0-15.72-3.48a24,24,0,0,1-9.58-9.23,25.27,25.27,0,0,1-3.24-12.63A26.2,26.2,0,0,1,577.45,95a22,22,0,0,1,6.72-8.25,36.49,36.49,0,0,1,11-5.52,120.36,120.36,0,0,1,12.75-2.89q7.11-1.25,15-2.35l15.6-2.19L632.51,77q.15-9.93-4.19-14.74t-14.9-4.81a24.67,24.67,0,0,0-12.2,3.09q-5.55,3.09-7.74,10.2l-15.25-4.69A31.5,31.5,0,0,1,590.16,48.8q8.79-6.4,23.42-6.41a46.87,46.87,0,0,1,19.75,3.87A24.53,24.53,0,0,1,645.65,58.5a26,26,0,0,1,2.5,8.76,99.41,99.41,0,0,1,.47,9.94v52H634.15V109.89l2.81,2.5q-5.24,9.69-13.33,14.43T603.72,131.55Zm2.9-13.37a26.7,26.7,0,0,0,12-2.47,23.13,23.13,0,0,0,8.06-6.29,20,20,0,0,0,4-8A29,29,0,0,0,632.15,93c.13-3.12.2-5.63.2-7.5l5.32,2q-7.74,1.17-14.08,2.11t-11.46,1.84A73.58,73.58,0,0,0,603,93.54a29,29,0,0,0-6,2.82,13.2,13.2,0,0,0-4.15,4,10.33,10.33,0,0,0-1.52,5.71,11.76,11.76,0,0,0,1.64,6.07,11.39,11.39,0,0,0,5,4.41A19.5,19.5,0,0,0,606.62,118.18Z"/></g></g></svg>