<svg xmlns="http://www.w3.org/2000/svg" xmlns:xlink="http://www.w3.org/1999/xlink" viewBox="0 0 439.84 377.84"><defs><style>.cls-1{fill:#029b47;}.cls-2{fill:url(#linear-gradient);}.cls-3{fill:#fff;}</style><linearGradient id="linear-gradient" x1="-5658" y1="91.93" x2="-5883.73" y2="216.86" gradientTransform="matrix(-1, 0, 0, 1, -5557.74, 0)" gradientUnits="userSpaceOnUse"><stop offset="0" stop-color="#00d45f"/><stop offset="1" stop-color="#39b54a"/></linearGradient></defs><title>Stacked - White Text - Coloured</title><g id="Layer_2" data-name="Layer 2"><g id="Layer_1-2" data-name="Layer 1"><path class="cls-1" d="M313.05,229.79h0A37.67,37.67,0,0,1,280.44,211l-13.36-23.15c-16.52-28.6-57.8-28.6-74.31,0L179.4,211a37.65,37.65,0,0,1-32.61,18.83h0c-33,0-53.66-35.76-37.15-64.36l83.13-144c16.51-28.6,57.79-28.6,74.31,0l83.12,144C366.72,194,346.08,229.79,313.05,229.79Z"/><path class="cls-2" d="M103.83,186.82c0,22.41,17.93,43,43,43A37.67,37.67,0,0,0,179.4,211l8.88-15.39h0a43.79,43.79,0,0,1,4.89-8.43,42.7,42.7,0,0,1,10.26-11.7c18-17.06,55.56-38.8,130-39.08l-28.58-49.5L234.91,97.64a82.71,82.71,0,0,1-66.33-18.83l-6-5.11-51.46,89.13-1.51,2.6A42.58,42.58,0,0,0,103.83,186.82Z"/><path class="cls-3" d="M0,375.49,36.6,262.87H60.14L96.75,375.49h-17L46.07,272.72h4.22L17,375.49Zm19-25.42V334.74H77.82v15.33Z"/><path class="cls-3" d="M112.39,375.49v-115h16.34v115Z"/><path class="cls-3" d="M184,377.76q-8.76,0-14.71-2.82a27.29,27.29,0,0,1-9.66-7.39,34.49,34.49,0,0,1-5.67-10A51.73,51.73,0,0,1,151.33,347a69.6,69.6,0,0,1-.7-9.07V291h16.58v41.53a64.6,64.6,0,0,0,.82,10.13,31.56,31.56,0,0,0,3.13,9.66,18.73,18.73,0,0,0,6.49,7.19q4.18,2.75,10.91,2.74a23.59,23.59,0,0,0,8.29-1.45,17.28,17.28,0,0,0,6.85-4.65,22.56,22.56,0,0,0,4.61-8.45A42.08,42.08,0,0,0,210,335l10.17,3.83a45.74,45.74,0,0,1-4.3,20.29,32.41,32.41,0,0,1-12.36,13.73Q195.45,377.75,184,377.76ZM212,375.49v-24.4h-2V291h16.5v84.47Z"/><path class="cls-3" d="M239,304.16V291h57.72v13.14Zm57.72,71.33a69.88,69.88,0,0,1-15.64,1.33,35.59,35.59,0,0,1-13.69-3,18.73,18.73,0,0,1-9.07-8.61,24.83,24.83,0,0,1-2.93-10.67q-.19-5.44-.2-12.32V267.56h16.43v73.91c0,3.39,0,6.33.12,8.84a13.28,13.28,0,0,0,1.6,6.33,11.07,11.07,0,0,0,9,5.51,58.77,58.77,0,0,0,14.43-.5Zm-1-71.33V291h57.71v13.14Zm57.71,71.33a69.88,69.88,0,0,1-15.64,1.33,35.5,35.5,0,0,1-13.68-3,18.71,18.71,0,0,1-9.08-8.61,24.83,24.83,0,0,1-2.93-10.67q-.19-5.44-.19-12.32V267.56h16.42v73.91c0,3.39,0,6.33.12,8.84a13.39,13.39,0,0,0,1.6,6.33,11.07,11.07,0,0,0,9,5.51,58.7,58.7,0,0,0,14.42-.5Z"/><path class="cls-3" d="M395,377.84q-9.37,0-15.72-3.48a23.9,23.9,0,0,1-9.58-9.23,25.32,25.32,0,0,1-3.24-12.63,26.4,26.4,0,0,1,2.26-11.27A22.16,22.16,0,0,1,375.4,333a36.47,36.47,0,0,1,11-5.51,119.66,119.66,0,0,1,12.75-2.9q7.11-1.24,15-2.34l15.6-2.19-5.95,3.28q.16-9.93-4.18-14.74t-14.9-4.81a24.67,24.67,0,0,0-12.2,3.09q-5.55,3.09-7.74,10.21l-15.25-4.7a31.55,31.55,0,0,1,11.92-17.28q8.81-6.4,23.43-6.41a46.79,46.79,0,0,1,19.74,3.87,24.49,24.49,0,0,1,12.32,12.24,25.65,25.65,0,0,1,2.51,8.76,99.19,99.19,0,0,1,.46,9.93v52H425.38V356.17l2.81,2.5q-5.24,9.7-13.33,14.43T395,377.84Zm2.9-13.38a26.86,26.86,0,0,0,12-2.46,23.13,23.13,0,0,0,8.06-6.3,19.87,19.87,0,0,0,4-8,29,29,0,0,0,1.52-8.44q.19-4.69.2-7.51l5.32,2-14.08,2.11c-4.23.62-8.05,1.24-11.46,1.83a73.06,73.06,0,0,0-9.11,2.16,29.56,29.56,0,0,0-6,2.81,13.34,13.34,0,0,0-4.15,4,10.22,10.22,0,0,0-1.52,5.71,11.63,11.63,0,0,0,1.64,6.06,11.45,11.45,0,0,0,5,4.42A19.7,19.7,0,0,0,397.85,364.46Z"/></g></g></svg>